<?xml version="1.0" encoding="UTF-8" standalone="no"?>
<!DOCTYPE svg PUBLIC "-//W3C//DTD SVG 1.1//EN"
 "http://www.w3.org/Graphics/SVG/1.1/DTD/svg11.dtd">
<!-- Generated by graphviz version 2.40.1 (20161225.0304)
 -->
<!-- Title: dependencies Pages: 1 -->
<svg width="695pt" height="284pt"
 viewBox="0.00 0.00 695.00 284.00" xmlns="http://www.w3.org/2000/svg" xmlns:xlink="http://www.w3.org/1999/xlink">
<g id="graph0" class="graph" transform="scale(1 1) rotate(0) translate(4 280)">
<title>dependencies</title>
<polygon fill="#ffffff" stroke="transparent" points="-4,4 -4,-280 691,-280 691,4 -4,4"/>
<text text-anchor="start" x="322.5091" y="-42.4" font-family="sans-serif" font-weight="bold" font-size="14.00" fill="#000000">Legend</text>
<polygon fill="#ffffb3" stroke="transparent" points="109.5,-10 109.5,-30 129.5,-30 129.5,-10 109.5,-10"/>
<text text-anchor="start" x="133.129" y="-15.4" font-family="sans-serif" font-size="14.00" fill="#000000"> &#160;Declarations</text>
<polygon fill="#8dd3c7" stroke="transparent" points="222.5,-10 222.5,-30 242.5,-30 242.5,-10 222.5,-10"/>
<text text-anchor="start" x="246.2251" y="-15.4" font-family="sans-serif" font-size="14.00" fill="#000000"> &#160;Module</text>
<polygon fill="#80b1d3" stroke="transparent" points="308.5,-10 308.5,-30 328.5,-30 328.5,-10 308.5,-10"/>
<text text-anchor="start" x="332.2812" y="-15.4" font-family="sans-serif" font-size="14.00" fill="#000000"> &#160;Bootstrap</text>
<polygon fill="#fdb462" stroke="transparent" points="405.5,-10 405.5,-30 425.5,-30 425.5,-10 405.5,-10"/>
<text text-anchor="start" x="429.1732" y="-15.4" font-family="sans-serif" font-size="14.00" fill="#000000"> &#160;Providers</text>
<polygon fill="#fb8072" stroke="transparent" points="501.5,-10 501.5,-30 521.5,-30 521.5,-10 501.5,-10"/>
<text text-anchor="start" x="525.2258" y="-15.4" font-family="sans-serif" font-size="14.00" fill="#000000"> &#160;Exports</text>
<g id="clust1" class="cluster">
<title>cluster_SharedModule</title>
<polygon fill="none" stroke="#000000" stroke-dasharray="1,5" points="8,-70 8,-268 679,-268 679,-70 8,-70"/>
</g>
<g id="clust2" class="cluster">
<title>cluster_SharedModule_declarations</title>
<polygon fill="none" stroke="#000000" points="108,-78 108,-130 507,-130 507,-78 108,-78"/>
</g>
<g id="clust7" class="cluster">
<title>cluster_SharedModule_exports</title>
<polygon fill="none" stroke="#000000" points="16,-208 16,-260 671,-260 671,-208 16,-208"/>
</g>
<!-- ButtonComponent -->
<g id="node1" class="node">
<title>ButtonComponent</title>
<polygon fill="#ffffb3" stroke="#000000" points="498.9511,-122 379.0489,-122 379.0489,-86 498.9511,-86 498.9511,-122"/>
<text text-anchor="middle" x="439" y="-99.8" font-family="Times,serif" font-size="14.00" fill="#000000">ButtonComponent</text>
</g>
<!-- SharedModule -->
<g id="node4" class="node">
<title>SharedModule</title>
<polygon fill="#8dd3c7" stroke="#000000" points="332.4231,-187 329.4231,-191 308.4231,-191 305.4231,-187 233.5769,-187 233.5769,-151 332.4231,-151 332.4231,-187"/>
<text text-anchor="middle" x="283" y="-164.8" font-family="Times,serif" font-size="14.00" fill="#000000">SharedModule</text>
</g>
<!-- ButtonComponent&#45;&gt;SharedModule -->
<g id="edge1" class="edge">
<title>ButtonComponent&#45;&gt;SharedModule</title>
<path fill="none" stroke="#000000" d="M439,-122.027C439,-138.3976 439,-160 439,-160 439,-160 342.3594,-160 342.3594,-160"/>
<polygon fill="#000000" stroke="#000000" points="342.3594,-156.5001 332.3594,-160 342.3593,-163.5001 342.3594,-156.5001"/>
</g>
<!-- TableauLightComponent -->
<g id="node2" class="node">
<title>TableauLightComponent</title>
<polygon fill="#ffffb3" stroke="#000000" points="361.2534,-122 204.7466,-122 204.7466,-86 361.2534,-86 361.2534,-122"/>
<text text-anchor="middle" x="283" y="-99.8" font-family="Times,serif" font-size="14.00" fill="#000000">TableauLightComponent</text>
</g>
<!-- TableauLightComponent&#45;&gt;SharedModule -->
<g id="edge2" class="edge">
<title>TableauLightComponent&#45;&gt;SharedModule</title>
<path fill="none" stroke="#000000" d="M283,-122.1061C283,-122.1061 283,-140.991 283,-140.991"/>
<polygon fill="#000000" stroke="#000000" points="279.5001,-140.9909 283,-150.991 286.5001,-140.991 279.5001,-140.9909"/>
</g>
<!-- TotalPipe -->
<g id="node3" class="node">
<title>TotalPipe</title>
<polygon fill="#ffffb3" stroke="#000000" points="186.4376,-122 115.5624,-122 115.5624,-86 186.4376,-86 186.4376,-122"/>
<text text-anchor="middle" x="151" y="-99.8" font-family="Times,serif" font-size="14.00" fill="#000000">TotalPipe</text>
</g>
<!-- TotalPipe&#45;&gt;SharedModule -->
<g id="edge3" class="edge">
<title>TotalPipe&#45;&gt;SharedModule</title>
<path fill="none" stroke="#000000" d="M151,-122.027C151,-138.3976 151,-160 151,-160 151,-160 223.4725,-160 223.4725,-160"/>
<polygon fill="#000000" stroke="#000000" points="223.4726,-163.5001 233.4725,-160 223.4725,-156.5001 223.4726,-163.5001"/>
</g>
<!-- ButtonComponent  -->
<g id="node5" class="node">
<title>ButtonComponent </title>
<polygon fill="#fb8072" stroke="#000000" points="663.4502,-252 540.5498,-252 540.5498,-216 663.4502,-216 663.4502,-252"/>
<text text-anchor="middle" x="602" y="-229.8" font-family="Times,serif" font-size="14.00" fill="#000000">ButtonComponent </text>
</g>
<!-- SharedModule&#45;&gt;ButtonComponent  -->
<g id="edge4" class="edge">
<title>SharedModule&#45;&gt;ButtonComponent </title>
<path fill="none" stroke="#000000" stroke-dasharray="5,2" d="M332.4937,-169C422.0949,-169 602,-169 602,-169 602,-169 602,-205.8939 602,-205.8939"/>
<polygon fill="#000000" stroke="#000000" points="598.5001,-205.8938 602,-215.8939 605.5001,-205.8939 598.5001,-205.8938"/>
</g>
<!-- TableauLightComponent  -->
<g id="node6" class="node">
<title>TableauLightComponent </title>
<polygon fill="#fb8072" stroke="#000000" points="522.2534,-252 361.7466,-252 361.7466,-216 522.2534,-216 522.2534,-252"/>
<text text-anchor="middle" x="442" y="-229.8" font-family="Times,serif" font-size="14.00" fill="#000000">TableauLightComponent </text>
</g>
<!-- SharedModule&#45;&gt;TableauLightComponent  -->
<g id="edge5" class="edge">
<title>SharedModule&#45;&gt;TableauLightComponent </title>
<path fill="none" stroke="#000000" stroke-dasharray="5,2" d="M332.4176,-178C352.2819,-178 370.5742,-178 370.5742,-178 370.5742,-178 370.5742,-205.973 370.5742,-205.973"/>
<polygon fill="#000000" stroke="#000000" points="367.0742,-205.973 370.5742,-215.973 374.0742,-205.973 367.0742,-205.973"/>
</g>
<!-- TemplatesModule  -->
<g id="node7" class="node">
<title>TemplatesModule </title>
<polygon fill="#fb8072" stroke="#000000" points="343.8631,-252 222.1369,-252 222.1369,-216 343.8631,-216 343.8631,-252"/>
<text text-anchor="middle" x="283" y="-229.8" font-family="Times,serif" font-size="14.00" fill="#000000">TemplatesModule </text>
</g>
<!-- SharedModule&#45;&gt;TemplatesModule  -->
<g id="edge6" class="edge">
<title>SharedModule&#45;&gt;TemplatesModule </title>
<path fill="none" stroke="#000000" stroke-dasharray="5,2" d="M283,-187.1061C283,-187.1061 283,-205.991 283,-205.991"/>
<polygon fill="#000000" stroke="#000000" points="279.5001,-205.9909 283,-215.991 286.5001,-205.991 279.5001,-205.9909"/>
</g>
<!-- TextModule  -->
<g id="node8" class="node">
<title>TextModule </title>
<polygon fill="#fb8072" stroke="#000000" points="204.2081,-252 115.7919,-252 115.7919,-216 204.2081,-216 204.2081,-252"/>
<text text-anchor="middle" x="160" y="-229.8" font-family="Times,serif" font-size="14.00" fill="#000000">TextModule </text>
</g>
<!-- SharedModule&#45;&gt;TextModule  -->
<g id="edge7" class="edge">
<title>SharedModule&#45;&gt;TextModule </title>
<path fill="none" stroke="#000000" stroke-dasharray="5,2" d="M233.7586,-178C213.7644,-178 195.286,-178 195.286,-178 195.286,-178 195.286,-205.973 195.286,-205.973"/>
<polygon fill="#000000" stroke="#000000" points="191.786,-205.973 195.286,-215.973 198.786,-205.973 191.786,-205.973"/>
</g>
<!-- TotalPipe  -->
<g id="node9" class="node">
<title>TotalPipe </title>
<polygon fill="#fb8072" stroke="#000000" points="97.9362,-252 24.0638,-252 24.0638,-216 97.9362,-216 97.9362,-252"/>
<text text-anchor="middle" x="61" y="-229.8" font-family="Times,serif" font-size="14.00" fill="#000000">TotalPipe </text>
</g>
<!-- SharedModule&#45;&gt;TotalPipe  -->
<g id="edge8" class="edge">
<title>SharedModule&#45;&gt;TotalPipe </title>
<path fill="none" stroke="#000000" stroke-dasharray="5,2" d="M233.731,-169C168.328,-169 61,-169 61,-169 61,-169 61,-205.8939 61,-205.8939"/>
<polygon fill="#000000" stroke="#000000" points="57.5001,-205.8938 61,-215.8939 64.5001,-205.8939 57.5001,-205.8938"/>
</g>
</g>
</svg>
